<?xml version="1.0" encoding="UTF-8"?>
<svg version="1.1" xmlns="http://www.w3.org/2000/svg" width="256" height="256">
<path d="M0 0 C1.1875 2 1.1875 2 2 4 C3.30735186 4.71627741 4.64704553 5.3741115 6 6 C7.58753149 6.86735992 9.1708239 7.74251924 10.75 8.625 C11.94882812 9.29402344 11.94882812 9.29402344 13.171875 9.9765625 C13.77515625 10.31429688 14.3784375 10.65203125 15 11 C12.85617849 13.32683067 11.45338644 14.27330678 8.5 15.75 C5.55894247 17.75582585 5.02537147 18.90836917 4.0546875 22.4140625 C3.68591485 24.40638614 3.37087916 26.40195567 3.06469727 28.40478516 C2.17195258 33.96921834 0.59005861 36.7655719 -3 41 C-3.309375 41.886875 -3.61875 42.77375 -3.9375 43.6875 C-6.12071758 48.43920885 -10.95395079 49.99980398 -15.5625 51.8125 C-19.86885168 53.60261948 -21.37263851 55.68909635 -23.73828125 59.58203125 C-25 61 -25 61 -28.8125 61.4375 C-29.864375 61.293125 -30.91625 61.14875 -32 61 C-32 60.34 -32 59.68 -32 59 C-35.60351091 59.27719315 -38.28950409 59.55126574 -41.375 61.5 C-45.5690167 67.95233338 -44.02118987 77.79604084 -43.6875 85.1875 C-43.65205078 86.24130859 -43.61660156 87.29511719 -43.58007812 88.38085938 C-43.32428921 94.43962058 -42.74694731 99.50610539 -40 105 C-36.60769135 104.7143319 -35.24634145 104.24373005 -32.7890625 101.8125 C-32.07492188 100.884375 -31.36078125 99.95625 -30.625 99 C-29.85285156 98.01386719 -29.08070313 97.02773437 -28.28515625 96.01171875 C-26.83350336 94.09851468 -25.38286415 92.18454072 -23.93359375 90.26953125 C-23.31613281 89.45871094 -22.69867188 88.64789063 -22.0625 87.8125 C-21.51722656 87.07644531 -20.97195312 86.34039062 -20.41015625 85.58203125 C-19.94480469 85.05996094 -19.47945312 84.53789063 -19 84 C-18.34 84 -17.68 84 -17 84 C-16.71125 83.21625 -16.4225 82.4325 -16.125 81.625 C-15 79 -15 79 -13 77 C-10.84521484 76.77294922 -10.84521484 76.77294922 -8.2109375 76.8046875 C-7.26992187 76.81113281 -6.32890625 76.81757812 -5.359375 76.82421875 C-4.37453125 76.84097656 -3.3896875 76.85773438 -2.375 76.875 C-1.38242188 76.88402344 -0.38984375 76.89304687 0.6328125 76.90234375 C3.08879326 76.92595895 5.54423691 76.96058581 8 77 C7.39505909 83.17500634 6.45911667 89.13735306 5.15234375 95.19921875 C4.79093725 96.91990542 4.4296115 98.64060904 4.06835938 100.36132812 C3.50184694 103.03435094 2.93335184 105.70693624 2.36303711 108.37915039 C1.80854853 110.98479397 1.26137202 113.59189577 0.71484375 116.19921875 C0.54299057 116.99309494 0.37113739 117.78697113 0.19407654 118.60490417 C-0.68514736 122.81399074 -1.1893629 126.67139694 -1 131 C-0.13375 130.855625 0.7325 130.71125 1.625 130.5625 C5.49469918 131.06412767 5.86975827 131.56479446 8.25 134.4375 C8.72953125 135.07558594 9.2090625 135.71367187 9.703125 136.37109375 C10.92174333 138.13636552 10.92174333 138.13636552 13 139 C13.35943813 142.00745071 13.4443356 144.99353303 13.55859375 148.01953125 C14.04304963 151.29068024 14.99229138 152.46877596 17 155 C16.77916611 159.12223252 16.13209068 162.44651554 14 166 C13.34 165.67 12.68 165.34 12 165 C11.375 162.9375 11.375 162.9375 11 161 C10.90203125 161.62648437 10.8040625 162.25296875 10.703125 162.8984375 C10.55359375 163.71570313 10.4040625 164.53296875 10.25 165.375 C10.11078125 166.18710938 9.9715625 166.99921875 9.828125 167.8359375 C9 170 9 170 7.46875 171.25 C3.76515659 172.3751423 0.10186152 172.47169208 -3.75 172.625 C-4.54277344 172.66367188 -5.33554688 172.70234375 -6.15234375 172.7421875 C-8.10119416 172.836108 -10.05056451 172.91912822 -12 173 C-12.0825 174.258125 -12.165 175.51625 -12.25 176.8125 C-13.01717114 184.47340619 -14.78240386 191.94501013 -16.43847656 199.45263672 C-17.00450662 202.02044436 -17.56147293 204.59009846 -18.1171875 207.16015625 C-18.47343528 208.79438494 -18.83018756 210.42850376 -19.1875 212.0625 C-19.43753784 213.21395508 -19.43753784 213.21395508 -19.69262695 214.38867188 C-20.88379584 219.76759168 -20.88379584 219.76759168 -22 222 C-30.83801258 223.49414567 -40.06720547 223.12053246 -49 223 C-48.34177681 217.14912724 -47.35759279 211.44862401 -46.15234375 205.6875 C-45.97619034 204.83317383 -45.80003693 203.97884766 -45.61854553 203.09863281 C-45.06110955 200.39847642 -44.49937862 197.69923502 -43.9375 195 C-43.55635519 193.15761111 -43.17549305 191.31516372 -42.79492188 189.47265625 C-41.86654716 184.98108802 -40.93432231 180.49033463 -40 176 C-46.96466722 175.95234667 -53.86776347 175.95826541 -60.8125 176.5 C-68.88085154 177.0815837 -76.91473041 177.09676519 -85 177 C-84.52013969 171.43109483 -83.70084819 166.32932432 -82 161 C-84.64 161 -87.28 161 -90 161 C-93.0906843 172.84332911 -95.66395031 184.74917561 -98.0625 196.75 C-100.16068375 207.22593886 -102.25419631 217.66925344 -105 228 C-110.88400655 228.85695967 -116.55909292 229.12539234 -122.5 229.0625 C-123.73363281 229.05573242 -123.73363281 229.05573242 -124.9921875 229.04882812 C-126.99482396 229.03718489 -128.99742227 229.01925556 -131 229 C-131.46612966 220.92041923 -129.917166 213.38382206 -128.28393555 205.52099609 C-127.82253354 203.29833352 -127.37392574 201.07341618 -126.92773438 198.84765625 C-124.54481609 187.1534207 -121.76769568 175.62432185 -119 164 C-136.16 164.66 -153.32 165.32 -171 166 C-170.01 167.98 -170.01 167.98 -169 170 C-169.625 172.1875 -169.625 172.1875 -171 174 C-172.671875 174.796875 -172.671875 174.796875 -175 175 C-186.09336807 170.87840859 -198.75167076 163.35968342 -205 153 C-205.71333654 150.5583783 -205.89521971 148.56711713 -206 146 C-203 145 -203 145 -200 146 C-200.23546791 145.24012787 -200.23546791 145.24012787 -200.47569275 144.46490479 C-201.17525115 141.17609874 -201.27172685 137.91035393 -201.38891602 134.56152344 C-201.41832275 133.81564468 -201.44772949 133.06976593 -201.47802734 132.30128479 C-201.57447956 129.82079667 -201.66450023 127.34012647 -201.75390625 124.859375 C-201.81957871 123.10003068 -201.88541339 121.3406924 -201.95140076 119.58135986 C-202.08963816 115.86570302 -202.22445607 112.1499398 -202.35717773 108.43408203 C-202.49059178 104.70892905 -202.62911673 100.98403304 -202.77319336 97.25927734 C-203.19453802 86.34635805 -203.56021563 75.43362651 -203.84893799 64.51635742 C-203.94785138 60.78348445 -204.06320217 57.0516027 -204.19012451 53.31958008 C-204.34426694 48.69868552 -204.45478661 44.0785403 -204.53474236 39.45578766 C-204.5710007 37.72670787 -204.62106971 35.99785326 -204.68606758 34.26961517 C-205.22925685 19.36596331 -205.22925685 19.36596331 -200.19360352 13.57324219 C-198.08937073 11.63494873 -198.08937073 11.63494873 -196 10 C-195.37338974 9.47255188 -194.74677948 8.94510376 -194.10118103 8.40167236 C-182.16209152 -0.9542114 -157.46999963 2.35957729 -143 2 C-142.22666321 1.97983826 -141.45332642 1.95967651 -140.65655518 1.93890381 C-135.60927089 1.81063084 -130.56278658 1.71637037 -125.51419067 1.65896606 C-123.84207566 1.63637622 -122.17005373 1.60522756 -120.4982605 1.56539917 C-118.14425943 1.51166102 -115.79203004 1.49015132 -113.4375 1.4765625 C-112.37523949 1.44262642 -112.37523949 1.44262642 -111.29151917 1.40800476 C-109.30859375 1.41650391 -109.30859375 1.41650391 -106 2 C-103.52146132 5.09373834 -102.18910308 8.02883538 -102 12 C-102.49242188 12.96164063 -102.98484375 13.92328125 -103.4921875 14.9140625 C-105.80819932 20.09700186 -105.20394404 25.43912579 -105 31 C-104.52843518 43.85800071 -104.52843518 43.85800071 -108 50 C-108.99 50.99 -108.99 50.99 -110 52 C-110.99 52 -111.98 52 -113 52 C-112.896875 52.7425 -112.79375 53.485 -112.6875 54.25 C-113 57 -113 57 -115.1875 59 C-116.115625 59.66 -117.04375 60.32 -118 61 C-118.86625 61.9075 -119.7325 62.815 -120.625 63.75 C-123 66 -123 66 -126 66 C-126 65.34 -126 64.68 -126 64 C-131.18379277 62.27206908 -136.79750145 62.53679728 -142 64 C-143.19633765 73.1327562 -144.20791268 82.21873132 -144.3125 91.4375 C-144.32990234 92.15220459 -144.34730469 92.86690918 -144.36523438 93.60327148 C-144.39490372 97.53928118 -144.39490372 97.53928118 -142.48046875 100.84765625 C-141.99191406 101.22792969 -141.50335938 101.60820313 -141 102 C-141 102.66 -141 103.32 -141 104 C-140.236875 104.268125 -139.47375 104.53625 -138.6875 104.8125 C-136.11011382 105.95134505 -134.73045136 106.81416671 -133 109 C-133 109.66 -133 110.32 -133 111 C-132.14535156 111.41185547 -132.14535156 111.41185547 -131.2734375 111.83203125 C-124.48962605 115.31718524 -118.24778108 119.53670957 -114 126 C-114 126.66 -114 127.32 -114 128 C-113.34 128 -112.68 128 -112 128 C-111.67 122.39 -111.34 116.78 -111 111 C-115.62 111.33 -120.24 111.66 -125 112 C-124.47895138 102.6211248 -122.43487535 94.02602631 -120 85 C-117.36 85 -114.72 85 -112 85 C-112.03480469 84.18917969 -112.06960937 83.37835938 -112.10546875 82.54296875 C-112.34298565 72.82739662 -110.67404966 64.94551221 -107 56 C-107.66 56 -108.32 56 -109 56 C-107.96699326 52.55664421 -106.74225761 49.41643964 -105.0625 46.25 C-101.71841941 39.63698669 -99.77398163 33.70762111 -100.25 26.25 C-100.44693665 18.63839854 -97.4744065 12.05405339 -93 6 C-86.34358966 -0.95191863 -76.23184846 0.01740719 -67.3125 -0.25 C-65.61344604 -0.31753104 -63.91447001 -0.38705022 -62.21557617 -0.45849609 C-57.95060002 -0.63249007 -53.68518825 -0.77959797 -49.41894531 -0.9185791 C-45.75781963 -1.04181138 -42.09775819 -1.18955025 -38.4375 -1.3359375 C-6.07123139 -2.58350272 -6.07123139 -2.58350272 0 0 Z " fill="#E13229" transform="translate(229,19)"/>
<path d="M0 0 C5.04728428 -0.12827297 10.0937686 -0.22253344 15.1423645 -0.27993774 C16.81447952 -0.30252758 18.48650144 -0.33367625 20.15829468 -0.37350464 C22.51229574 -0.42724279 24.86452514 -0.44875249 27.21905518 -0.46234131 C28.28131569 -0.49627739 28.28131569 -0.49627739 29.36503601 -0.53089905 C31.34796143 -0.5223999 31.34796143 -0.5223999 34.65655518 0.06109619 C37.13509386 3.15483453 38.4674521 6.08993158 38.65655518 10.06109619 C38.1641333 11.02273682 37.67171143 11.98437744 37.16436768 12.97515869 C34.84835586 18.15809805 35.45261113 23.50022198 35.65655518 29.06109619 C36.12811999 41.9190969 36.12811999 41.9190969 32.65655518 48.06109619 C31.66655518 49.05109619 31.66655518 49.05109619 30.65655518 50.06109619 C29.66655518 50.06109619 28.67655518 50.06109619 27.65655518 50.06109619 C27.75968018 50.80359619 27.86280518 51.54609619 27.96905518 52.31109619 C27.65655518 55.06109619 27.65655518 55.06109619 25.46905518 57.06109619 C24.54093018 57.72109619 23.61280518 58.38109619 22.65655518 59.06109619 C21.79030518 59.96859619 20.92405518 60.87609619 20.03155518 61.81109619 C17.65655518 64.06109619 17.65655518 64.06109619 14.65655518 64.06109619 C14.65655518 63.40109619 14.65655518 62.74109619 14.65655518 62.06109619 C9.47276241 60.33316527 3.85905372 60.59789348 -1.34344482 62.06109619 C-2.53978248 71.19385239 -3.55135751 80.27982751 -3.65594482 89.49859619 C-3.67334717 90.21330078 -3.69074951 90.92800537 -3.7086792 91.66436768 C-3.73834854 95.60037737 -3.73834854 95.60037737 -1.82391357 98.90875244 C-1.33535889 99.28902588 -0.8468042 99.66929932 -0.34344482 100.06109619 C-0.34344482 100.72109619 -0.34344482 101.38109619 -0.34344482 102.06109619 C0.41968018 102.32922119 1.18280518 102.59734619 1.96905518 102.87359619 C4.54644135 104.01244125 5.92610382 104.8752629 7.65655518 107.06109619 C7.65655518 107.72109619 7.65655518 108.38109619 7.65655518 109.06109619 C8.51120361 109.47295166 8.51120361 109.47295166 9.38311768 109.89312744 C16.16692912 113.37828143 22.4087741 117.59780577 26.65655518 124.06109619 C26.65655518 124.72109619 26.65655518 125.38109619 26.65655518 126.06109619 C28.14155518 126.55609619 28.14155518 126.55609619 29.65655518 127.06109619 C29.21203419 132.66440026 28.52097405 138.02676667 27.18780518 143.48687744 C26.25975973 147.98380352 25.82349914 152.55860052 25.31671143 157.11968994 C24.65655518 160.06109619 24.65655518 160.06109619 21.65655518 162.06109619 C19.32167053 162.37753296 19.32167053 162.37753296 16.5425415 162.47174072 C15.501689 162.51163116 14.46083649 162.55152161 13.38844299 162.59262085 C12.26649033 162.62604584 11.14453766 162.65947083 9.98858643 162.69390869 C8.83863693 162.73547089 7.68868744 162.77703308 6.50389099 162.81985474 C2.82585836 162.95075647 -0.85246275 163.0685728 -4.53094482 163.18609619 C-7.02251126 163.27247524 -9.5140484 163.35970411 -12.0055542 163.44781494 C-18.11787836 163.66210937 -24.23049027 163.86565808 -30.34344482 164.06109619 C-30.0005542 164.675979 -29.65766357 165.29086182 -29.30438232 165.92437744 C-28.34344482 168.06109619 -28.34344482 168.06109619 -28.96844482 170.24859619 C-30.34344482 172.06109619 -30.34344482 172.06109619 -32.01531982 172.85797119 C-39.06818222 173.4733216 -48.44795437 166.25121112 -53.84344482 162.06109619 C-64.31756044 153.10546851 -64.31756044 153.10546851 -65.21844482 147.12359619 C-65.25969482 146.11297119 -65.30094482 145.10234619 -65.34344482 144.06109619 C-62.34344482 143.06109619 -62.34344482 143.06109619 -59.34344482 144.06109619 C-59.57891273 143.30122406 -59.57891273 143.30122406 -59.81913757 142.52600098 C-60.51869598 139.23719493 -60.61517168 135.97145012 -60.73236084 132.62261963 C-60.76176758 131.87674088 -60.79117432 131.13086212 -60.82147217 130.36238098 C-60.91792439 127.88189286 -61.00794505 125.40122266 -61.09735107 122.92047119 C-61.16302354 121.16112687 -61.22885821 119.40178859 -61.29484558 117.64245605 C-61.43308299 113.92679922 -61.56790089 110.21103599 -61.70062256 106.49517822 C-61.83403661 102.77002524 -61.97256155 99.04512923 -62.11663818 95.32037354 C-62.53798284 84.40745424 -62.90366045 73.49472271 -63.19238281 62.57745361 C-63.29129621 58.84458064 -63.40664699 55.11269889 -63.53356934 51.38067627 C-63.68771177 46.75978171 -63.79823143 42.13963649 -63.87818718 37.51688385 C-63.91444553 35.78780406 -63.96451454 34.05894945 -64.02951241 32.33071136 C-64.57270168 17.4270595 -64.57270168 17.4270595 -59.53704834 11.63433838 C-57.43281555 9.69604492 -57.43281555 9.69604492 -55.34344482 8.06109619 C-54.71683456 7.53364807 -54.0902243 7.00619995 -53.44462585 6.46276855 C-41.05276729 -3.24792071 -15.03077837 0.39186897 0 0 Z " fill="#D18384" transform="translate(88.34344482421875,20.93890380859375)"/>
<path d="M0 0 C1.1875 2 1.1875 2 2 4 C3.30735186 4.71627741 4.64704553 5.3741115 6 6 C7.58753149 6.86735992 9.1708239 7.74251924 10.75 8.625 C11.54921875 9.07101563 12.3484375 9.51703125 13.171875 9.9765625 C13.77515625 10.31429688 14.3784375 10.65203125 15 11 C12.85617849 13.32683067 11.45338644 14.27330678 8.5 15.75 C5.55894247 17.75582585 5.02537147 18.90836917 4.0546875 22.4140625 C3.68591485 24.40638614 3.37087916 26.40195567 3.06469727 28.40478516 C2.17195258 33.96921834 0.59005861 36.7655719 -3 41 C-3.4640625 42.3303125 -3.4640625 42.3303125 -3.9375 43.6875 C-6.12071758 48.43920885 -10.95395079 49.99980398 -15.5625 51.8125 C-19.86885168 53.60261948 -21.37263851 55.68909635 -23.73828125 59.58203125 C-25 61 -25 61 -28.8125 61.4375 C-29.864375 61.293125 -30.91625 61.14875 -32 61 C-32 60.34 -32 59.68 -32 59 C-35.60351091 59.27719315 -38.28950409 59.55126574 -41.375 61.5 C-45.5690167 67.95233338 -44.02118987 77.79604084 -43.6875 85.1875 C-43.63432617 86.76821289 -43.63432617 86.76821289 -43.58007812 88.38085938 C-43.32428921 94.43962058 -42.74694731 99.50610539 -40 105 C-38.515 105.99 -38.515 105.99 -37 107 C-37.73605469 107.85722656 -38.47210938 108.71445313 -39.23046875 109.59765625 C-46.44907019 118.03848062 -46.44907019 118.03848062 -53 127 C-56.81780822 125.38477345 -60.51152562 123.36675945 -63 120 C-63.79246855 116.6614067 -63.98670094 113.42450862 -64 110 C-64.55749315 113.80609522 -64.77613341 117.21571554 -64 121 C-61.37992309 123.99291436 -58.42556392 126.00855113 -55 128 C-56.29675068 130.8041469 -57.71453412 133.02800486 -59.75 135.34765625 C-60.2759375 135.95287109 -60.801875 136.55808594 -61.34375 137.18164062 C-61.8903125 137.80232422 -62.436875 138.42300781 -63 139.0625 C-64.08480732 140.30209704 -65.16819583 141.54293749 -66.25 142.78515625 C-66.72953125 143.33051025 -67.2090625 143.87586426 -67.703125 144.43774414 C-69.19611743 146.18080524 -69.19611743 146.18080524 -71 149 C-75.29405419 148.52288287 -77.10857745 146.02590732 -80 143 C-81.86888827 141.58665324 -83.73584704 140.17958868 -85.64453125 138.8203125 C-87.83819197 135.87435892 -87.31599103 133.61436935 -87 130 C-86.3374678 126.38363337 -85.49580286 122.82127014 -84.625 119.25 C-83.03001333 112.59185798 -81.57586228 105.96028512 -80.44287109 99.20605469 C-80 97 -80 97 -79 95 C-78.61369961 92.96416877 -78.26403216 90.9212682 -77.9375 88.875 C-77.76089844 87.77929688 -77.58429688 86.68359375 -77.40234375 85.5546875 C-77.26957031 84.71164063 -77.13679688 83.86859375 -77 83 C-78.32 83 -79.64 83 -81 83 C-81 82.34 -81 81.68 -81 81 C-82.03125 81.495 -83.0625 81.99 -84.125 82.5 C-87.52451578 83.97473902 -90.27021549 84.27291106 -94 84 C-92.71480435 81.13302508 -91.42870746 79.02392288 -89 77 C-88.34 77 -87.68 77 -87 77 C-87 76.34 -87 75.68 -87 75 C-86.34 75 -85.68 75 -85 75 C-85 74.34 -85 73.68 -85 73 C-85.99 73 -86.98 73 -88 73 C-88 73.66 -88 74.32 -88 75 C-88.99 75 -89.98 75 -91 75 C-91 75.66 -91 76.32 -91 77 C-92.32 77 -93.64 77 -95 77 C-95.29934632 71.23873468 -95.51557278 65.48209706 -95.65917969 59.71484375 C-95.71909303 57.75896288 -95.80066535 55.80360957 -95.90527344 53.84960938 C-96.79687178 36.75190001 -96.79687178 36.75190001 -92.42919922 31.10131836 C-89.5606174 28.00518697 -86.38474359 25.51111161 -83 23 C-81.52993565 21.7006528 -80.06837348 20.39143392 -78.625 19.0625 C-76.29766188 17.07041518 -73.93364625 15.12701916 -71.5625 13.1875 C-68.96768028 11.26028607 -68.96768028 11.26028607 -68 9 C-68.94875 9.825 -69.8975 10.65 -70.875 11.5 C-73.75 14 -73.75 14 -76 14 C-76 14.66 -76 15.32 -76 16 C-76.66 16 -77.32 16 -78 16 C-78 16.66 -78 17.32 -78 18 C-79.63432755 19.47769218 -81.33476368 20.88269319 -83.0625 22.25 C-85.04590653 23.82801891 -87.02473735 25.41179894 -89 27 C-89.94818604 27.6199585 -89.94818604 27.6199585 -90.91552734 28.25244141 C-93.8246955 30.31565505 -95.70515556 31.79084762 -96.57055664 35.33984375 C-96.73122242 38.21541704 -96.65733112 40.99924659 -96.5 43.875 C-96.45758179 45.43577271 -96.45758179 45.43577271 -96.41430664 47.02807617 C-96.31431587 50.35470168 -96.16172092 53.67584329 -96 57 C-95.90369551 59.26947845 -95.8086336 61.53900999 -95.71484375 63.80859375 C-95.58219625 67.01345204 -95.44269024 70.21649571 -95.26953125 73.41943359 C-95.22054687 74.37027832 -95.1715625 75.32112305 -95.12109375 76.30078125 C-95.0739624 77.13778564 -95.02683105 77.97479004 -94.97827148 78.8371582 C-95 81 -95 81 -96 84 C-101.68697571 84.91397824 -106.31302429 84.91397824 -112 84 C-112.48127774 73.78621681 -110.87822557 65.42577432 -107 56 C-107.66 56 -108.32 56 -109 56 C-107.96699326 52.55664421 -106.74225761 49.41643964 -105.0625 46.25 C-101.71841941 39.63698669 -99.77398163 33.70762111 -100.25 26.25 C-100.44693665 18.63839854 -97.4744065 12.05405339 -93 6 C-86.34358966 -0.95191863 -76.23184846 0.01740719 -67.3125 -0.25 C-65.61344604 -0.31753104 -63.91447001 -0.38705022 -62.21557617 -0.45849609 C-57.95060002 -0.63249007 -53.68518825 -0.77959797 -49.41894531 -0.9185791 C-45.75781963 -1.04181138 -42.09775819 -1.18955025 -38.4375 -1.3359375 C-6.07123139 -2.58350272 -6.07123139 -2.58350272 0 0 Z " fill="#7C2424" transform="translate(229,19)"/>
<path d="M0 0 C9.9 0 19.8 0 30 0 C30 6 30 6 28.6015625 7.578125 C28.07304687 8.04734375 27.54453125 8.5165625 27 9 C24.77490103 14.43913082 23.63282236 20.17803428 23 26 C19.37 26 15.74 26 12 26 C12 26.66 12 27.32 12 28 C10.68 28.33 9.36 28.66 8 29 C7.9175 29.5775 7.835 30.155 7.75 30.75 C6.78202213 33.6539336 5.31305716 35.03740604 3 37 C2.34 37 1.68 37 1 37 C1.09936732 46.54568027 1.2359175 56.08990026 1.41961765 65.63433266 C1.50376294 70.06658811 1.57521287 74.49828353 1.61743164 78.93115234 C1.65866807 83.21142811 1.73353682 87.48992787 1.83149529 91.76926804 C1.86295273 93.39969699 1.88240335 95.0304044 1.88949776 96.66112137 C1.63160157 105.37528173 1.63160157 105.37528173 4.52633667 113.29901123 C6.29250764 114.8445306 7.91988053 115.92996616 10 117 C10.99 117.66 11.98 118.32 13 119 C11.70324932 121.8041469 10.28546588 124.02800486 8.25 126.34765625 C7.7240625 126.95287109 7.198125 127.55808594 6.65625 128.18164062 C6.1096875 128.80232422 5.563125 129.42300781 5 130.0625 C3.91519268 131.30209704 2.83180417 132.54293749 1.75 133.78515625 C1.27046875 134.33051025 0.7909375 134.87586426 0.296875 135.43774414 C-1.19611743 137.18080524 -1.19611743 137.18080524 -3 140 C-7.29405419 139.52288287 -9.10857745 137.02590732 -12 134 C-13.86888827 132.58665324 -15.73584704 131.17958868 -17.64453125 129.8203125 C-19.83819197 126.87435892 -19.31599103 124.61436935 -19 121 C-18.3374678 117.38363337 -17.49580286 113.82127014 -16.625 110.25 C-15.03001333 103.59185798 -13.57586228 96.96028512 -12.44287109 90.20605469 C-12 88 -12 88 -11 86 C-10.61369961 83.96416877 -10.26403216 81.9212682 -9.9375 79.875 C-9.76089844 78.77929688 -9.58429688 77.68359375 -9.40234375 76.5546875 C-9.26957031 75.71164063 -9.13679688 74.86859375 -9 74 C-10.32 74 -11.64 74 -13 74 C-13 73.34 -13 72.68 -13 72 C-14.03125 72.495 -15.0625 72.99 -16.125 73.5 C-19.52451578 74.97473902 -22.27021549 75.27291106 -26 75 C-24.71480435 72.13302508 -23.42870746 70.02392288 -21 68 C-20.34 68 -19.68 68 -19 68 C-19 67.34 -19 66.68 -19 66 C-18.34 66 -17.68 66 -17 66 C-17 65.34 -17 64.68 -17 64 C-17.99 64 -18.98 64 -20 64 C-20 64.66 -20 65.32 -20 66 C-20.99 66 -21.98 66 -23 66 C-23 66.66 -23 67.32 -23 68 C-24.32 68 -25.64 68 -27 68 C-27.29934632 62.23873468 -27.51557278 56.48209706 -27.65917969 50.71484375 C-27.71909303 48.75896288 -27.80066535 46.80360957 -27.90527344 44.84960938 C-28.79687178 27.75190001 -28.79687178 27.75190001 -24.42919922 22.10131836 C-21.5606174 19.00518697 -18.38474359 16.51111161 -15 14 C-13.52993565 12.7006528 -12.06837348 11.39143392 -10.625 10.0625 C-8.29766188 8.07041518 -5.93364625 6.12701916 -3.5625 4.1875 C-0.96768028 2.26028607 -0.96768028 2.26028607 0 0 Z " fill="#150303" transform="translate(161,28)"/>
<path d="M0 0 C4.25158203 4.25158203 2.12008669 20.92217457 2.1328125 27.11328125 C2 30 2 30 1 31 C-1.79593785 31.21553268 -4.57468734 31.37733613 -7.375 31.5 C-13.331302 31.78820816 -19.23332208 32.17577555 -25.16015625 32.8515625 C-28 33 -28 33 -31.87109375 32.7109375 C-39.91932264 32.02384608 -39.91932264 32.02384608 -47.17578125 35.22265625 C-49.888248 37.93532721 -49.888248 37.93532721 -52.1796875 40.8125 C-52.78039062 41.534375 -53.38109375 42.25625 -54 43 C-54.66 43 -55.32 43 -56 43 C-56 51.91 -56 60.82 -56 70 C-56.33 70 -56.66 70 -57 70 C-57 59.77 -57 49.54 -57 39 C-56.34 39 -55.68 39 -55 39 C-55 38.34 -55 37.68 -55 37 C-54.34 37 -53.68 37 -53 37 C-53 36.01 -53 35.02 -53 34 C-55.56259786 34.14424204 -58.12506662 34.29038514 -60.6875 34.4375 C-61.38939453 34.47681641 -62.09128906 34.51613281 -62.81445312 34.55664062 C-69.55379768 34.94602498 -76.26473134 35.48190241 -83 36 C-83 46.89 -83 57.78 -83 69 C-80.69 67.68 -78.38 66.36 -76 65 C-72.5625 64.75 -72.5625 64.75 -70 65 C-70.28751107 68.21422633 -71.09917158 69.09344717 -73.50390625 71.359375 C-75.01791016 72.54273437 -75.01791016 72.54273437 -76.5625 73.75 C-77.57441406 74.54921875 -78.58632812 75.3484375 -79.62890625 76.171875 C-80.41136719 76.77515625 -81.19382812 77.3784375 -82 78 C-81.34 78.66 -80.68 79.32 -80 80 C-81.98 80.495 -81.98 80.495 -84 81 C-83.125 76.25 -83.125 76.25 -82 74 C-81.34 74 -80.68 74 -80 74 C-80 73.34 -80 72.68 -80 72 C-81.65 72 -83.3 72 -85 72 C-85.34997958 66.35032971 -85.62187605 60.70275169 -85.84912109 55.046875 C-86.00290818 51.94127169 -86.24395151 48.84966245 -86.48828125 45.75 C-87.49724758 29.34727274 -87.49724758 29.34727274 -83.53515625 23.98828125 C-80.66579087 20.85126651 -77.46571806 18.44961337 -74 16 C-71.00568295 13.61013824 -68.14919546 11.14919546 -65.4375 8.4375 C-64.633125 7.633125 -63.82875 6.82875 -63 6 C-62.278125 5.2575 -61.55625 4.515 -60.8125 3.75 C-53.32265123 -0.91035034 -41.50977029 0.68820553 -32.9375 0.4375 C-32.2555658 0.41665344 -31.57363159 0.39580688 -30.87103271 0.37432861 C-7.14638231 -0.34810458 -7.14638231 -0.34810458 0 0 Z " fill="#B35555" transform="translate(117,28)"/>
<path d="M0 0 C10.56 0 21.12 0 32 0 C32 0.66 32 1.32 32 2 C31.34 2 30.68 2 30 2 C29.896875 2.845625 29.79375 3.69125 29.6875 4.5625 C29.06719031 7.66404845 28.07502421 10.07494745 26.76171875 12.92578125 C25.47631396 16.42603736 25.00024957 20.06856853 24.4296875 23.7421875 C24 26 24 26 23 27 C20.81707226 27.23481693 18.62796826 27.41363323 16.4375 27.5625 C14.64119141 27.68818359 14.64119141 27.68818359 12.80859375 27.81640625 C11.88175781 27.87699219 10.95492187 27.93757813 10 28 C10 28.66 10 29.32 10 30 C8.03852126 31.38938077 6.03833424 32.7260411 4 34 C4 33.01 4 32.02 4 31 C-4.14834939 31.45864961 -12.29640509 31.92501235 -20.4375 32.5 C-21.98244141 32.60828125 -21.98244141 32.60828125 -23.55859375 32.71875 C-26.00387908 32.85947526 -26.00387908 32.85947526 -28 34 C-28.48403495 29.49172101 -28.44807464 27.59268736 -25.6640625 23.91015625 C-24.66869705 22.94243984 -23.65495256 21.99331962 -22.625 21.0625 C-22.11710937 20.56943359 -21.60921875 20.07636719 -21.0859375 19.56835938 C-17.32456007 16 -17.32456007 16 -15 16 C-15 15.34 -15 14.68 -15 14 C-13.4609375 12.44921875 -13.4609375 12.44921875 -11.375 10.6875 C-10.64925781 10.06875 -9.92351563 9.45 -9.17578125 8.8125 C-7.31277164 7.26054945 -5.4397254 5.72216602 -3.5625 4.1875 C-0.96768028 2.26028607 -0.96768028 2.26028607 0 0 Z " fill="#6D3536" transform="translate(60,31)"/>
<path d="M0 0 C2.44119992 -0.09176859 4.81522635 -0.03241898 7.25610352 0.08935547 C10.16422852 0.19248047 13.07235352 0.29560547 16.06860352 0.40185547 C16.06860352 8.65185547 16.06860352 16.90185547 16.06860352 25.40185547 C8.86803468 26.00190287 1.98929693 26.54894623 -5.18139648 26.46435547 C-5.93807617 26.45984375 -6.69475586 26.45533203 -7.47436523 26.45068359 C-9.29341203 26.43917064 -11.11241667 26.42125217 -12.93139648 26.40185547 C-11.7717276 22.79859859 -10.52374368 19.33535411 -8.93139648 15.90185547 C-7.75628743 13.31748278 -6.75363336 10.85810945 -5.86889648 8.15185547 C-3.32575445 0.69197217 -3.32575445 0.69197217 0 0 Z " fill="#6D3434" transform="translate(99.931396484375,29.59814453125)"/>
<path d="M0 0 C5.61 0 11.22 0 17 0 C17 8.25 17 16.5 17 25 C13.82212459 26.0592918 11.57411057 26.11458939 8.23828125 26.09765625 C7.12001953 26.09443359 6.00175781 26.09121094 4.84960938 26.08789062 C3.68236328 26.07951172 2.51511719 26.07113281 1.3125 26.0625 C0.13365234 26.05798828 -1.04519531 26.05347656 -2.25976562 26.04882812 C-5.17322789 26.03703273 -8.08658863 26.0205727 -11 26 C-9.44411438 18.80934589 -7.73545458 12.49757845 -3.8125 6.25 C-2.554375 4.1875 -1.29625 2.125 0 0 Z " fill="#200404" transform="translate(199,27)"/>
<path d="M0 0 C0.33 1.32 0.66 2.64 1 4 C2.21816406 3.85820312 3.43632812 3.71640625 4.69140625 3.5703125 C17.48576587 2.31435121 17.48576587 2.31435121 21.6484375 4.19921875 C23.31745147 5.70424663 24.63043876 7.22630593 26 9 C26.99 9.66 27.98 10.32 29 11 C27.70324932 13.8041469 26.28546588 16.02800486 24.25 18.34765625 C23.46109375 19.25547852 23.46109375 19.25547852 22.65625 20.18164062 C22.1096875 20.80232422 21.563125 21.42300781 21 22.0625 C19.91519268 23.30209704 18.83180417 24.54293749 17.75 25.78515625 C17.27046875 26.33051025 16.7909375 26.87586426 16.296875 27.43774414 C14.80388257 29.18080524 14.80388257 29.18080524 13 32 C8.70594581 31.52288287 6.89142255 29.02590732 4 26 C2.73048099 25.03992625 1.45960557 24.08164391 0.1875 23.125 C-2.36611473 20.91631798 -2.92529422 20.36605834 -3.625 16.9375 C-2.71695086 11.21679041 -1.41828669 5.61405149 0 0 Z " fill="#371402" transform="translate(145,136)"/>
<path d="M0 0 C0.33 0 0.66 0 1 0 C1.31097513 7.06551351 1.6132495 14.13136045 1.90942383 21.19750977 C2.01125082 23.6022183 2.11508317 26.00684277 2.22094727 28.41137695 C2.37260456 31.86389452 2.51709146 35.3166483 2.66015625 38.76953125 C2.70906509 39.84773636 2.75797394 40.92594147 2.80836487 42.03681946 C2.8484819 43.03763046 2.88859894 44.03844147 2.92993164 45.06958008 C2.96768204 45.95116287 3.00543243 46.83274567 3.04432678 47.74104309 C3 50 3 50 2 53 C-3.68697571 53.91397824 -8.31302429 53.91397824 -14 53 C-14.48127774 42.78621681 -12.87822557 34.42577432 -9 25 C-9.66 25 -10.32 25 -11 25 C-9.3523657 18.90375311 -6.34188389 13.33066806 -3 8 C-2.34 7.67 -1.68 7.34 -1 7 C-0.59270772 4.67843403 -0.25561323 2.3431213 0 0 Z " fill="#832B2B" transform="translate(131,50)"/>
<path d="M0 0 C0.33 0.99 0.66 1.98 1 3 C2.30794428 3.71519506 3.64585091 4.37670033 5 5 C6.23980078 5.93900523 7.44910822 6.91960249 8.625 7.9375 C9.21539062 8.44152344 9.80578125 8.94554687 10.4140625 9.46484375 C12 11 12 11 14 14 C14.99 14.66 15.98 15.32 17 16 C16.01 16 15.02 16 14 16 C13.72414062 16.58265625 13.44828125 17.1653125 13.1640625 17.765625 C11.29591723 21.35146089 9.19634891 24.4776638 6 27 C3.08548676 27.60282198 1.00553082 27.36273648 -2 27 C-3.11519587 23.65441239 -2.89960635 21.921024 -2.44140625 18.45703125 C-2.30283203 17.38388672 -2.16425781 16.31074219 -2.02148438 15.20507812 C-1.87001953 14.08552734 -1.71855469 12.96597656 -1.5625 11.8125 C-1.41490234 10.68134766 -1.26730469 9.55019531 -1.11523438 8.38476562 C-0.74954204 5.58898876 -0.37755968 2.79419482 0 0 Z " fill="#9A3828" transform="translate(141,153)"/>
<path d="M0 0 C7.6878529 -0.11958882 7.6878529 -0.11958882 10.86328125 2.58984375 C11.88525842 3.82991034 12.87029478 5.10172038 13.80859375 6.40625 C14.92650954 8.15017882 14.92650954 8.15017882 17 9 C16.67 10.32 16.34 11.64 16 13 C9.88595404 14.85743168 4.41481258 16.42765417 -2 16 C-2.2396943 10.36718401 -1.38529821 5.45461169 0 0 Z " fill="#A42727" transform="translate(225,149)"/>
<path d="M0 0 C0.66 0.33 1.32 0.66 2 1 C1.21753906 1.77085938 0.43507813 2.54171875 -0.37109375 3.3359375 C-1.39336057 4.34882573 -2.41548881 5.36185384 -3.4375 6.375 C-4.2119043 7.13683594 -4.2119043 7.13683594 -5.00195312 7.9140625 C-7.857133 10.68568936 -7.857133 10.68568936 -10 14 C-5.38 14 -0.76 14 4 14 C4 13.34 4 12.68 4 12 C11.05153877 10.04369536 17.09509906 8.62226768 24.3671875 9.73828125 C29.57798066 10.25626811 34.80726111 9.5290408 40 9 C40.33 6.03 40.66 3.06 41 0 C42.13757948 4.55031791 41.4283779 6.63084406 40 11 C33.565 11.495 33.565 11.495 27 12 C27 12.66 27 13.32 27 14 C25.03852126 15.38938077 23.03833424 16.7260411 21 18 C21 17.01 21 16.02 21 15 C12.85165061 15.45864961 4.70359491 15.92501235 -3.4375 16.5 C-4.46746094 16.5721875 -5.49742188 16.644375 -6.55859375 16.71875 C-9.00387908 16.85947526 -9.00387908 16.85947526 -11 18 C-11.50040841 13.44514619 -11.4623366 11.59368222 -8.59375 7.91015625 C-7.57989223 6.94238292 -6.54792669 5.99327518 -5.5 5.0625 C-4.97535156 4.56943359 -4.45070313 4.07636719 -3.91015625 3.56835938 C-2.62212635 2.36229501 -1.31305737 1.17876741 0 0 Z " fill="#8B413F" transform="translate(43,47)"/>
<path d="M0 0 C0.33 0 0.66 0 1 0 C1.36294314 2.1026706 1.71506972 4.20721057 2.0625 6.3125 C2.25972656 7.48425781 2.45695313 8.65601562 2.66015625 9.86328125 C3 13 3 13 2 16 C2.99 16 3.98 16 5 16 C5 15.34 5 14.68 5 14 C8.13498292 12.14223235 10.37471432 11.79859524 14 12 C14.625 14.3125 14.625 14.3125 15 17 C14.34 17.99 13.68 18.98 13 20 C14.65 20 16.3 20 18 20 C18 21.32 18 22.64 18 24 C16.68 24.33 15.36 24.66 14 25 C14 24.34 14 23.68 14 23 C12.96875 23.495 11.9375 23.99 10.875 24.5 C7.47548422 25.97473902 4.72978451 26.27291106 1 26 C2.28519565 23.13302508 3.57129254 21.02392288 6 19 C6.66 19 7.32 19 8 19 C8 18.34 8 17.68 8 17 C8.66 17 9.32 17 10 17 C10 16.34 10 15.68 10 15 C9.01 15 8.02 15 7 15 C7 15.66 7 16.32 7 17 C6.01 17 5.02 17 4 17 C4 17.66 4 18.32 4 19 C2.68 19 1.36 19 0 19 C0 12.73 0 6.46 0 0 Z " fill="#481A1A" transform="translate(134,77)"/>
<path d="M0 0 C0.88068649 0.00007553 1.76137299 0.00015106 2.66874695 0.00022888 C3.61570938 0.00539017 4.56267181 0.01055145 5.53833008 0.01586914 C6.51071121 0.01728409 7.48309235 0.01869904 8.48493958 0.02015686 C11.59261137 0.02575722 14.70021129 0.03830977 17.80786133 0.05102539 C19.91398008 0.05604034 22.02009996 0.06060326 24.1262207 0.06469727 C29.29096197 0.07572677 34.45564946 0.09299164 39.62036133 0.11352539 C39.62036133 0.44352539 39.62036133 0.77352539 39.62036133 1.11352539 C38.52079102 1.17411133 37.4212207 1.23469727 36.28833008 1.29711914 C34.79481515 1.38130616 33.30132736 1.46597536 31.80786133 1.55102539 C31.02612549 1.59541748 30.24438965 1.63980957 29.43896484 1.68554688 C24.43828602 1.97921869 19.47369366 2.40350772 14.49536133 2.96508789 C11.62036133 3.11352539 11.62036133 3.11352539 7.74536133 2.82446289 C-0.30079938 2.13760326 -0.30079938 2.13760326 -7.55541992 5.33618164 C-10.26788667 8.0488526 -10.26788667 8.0488526 -12.55932617 10.92602539 C-13.1600293 11.64790039 -13.76073242 12.36977539 -14.37963867 13.11352539 C-15.03963867 13.11352539 -15.69963867 13.11352539 -16.37963867 13.11352539 C-16.37963867 22.02352539 -16.37963867 30.93352539 -16.37963867 40.11352539 C-16.70963867 40.11352539 -17.03963867 40.11352539 -17.37963867 40.11352539 C-17.37963867 29.88352539 -17.37963867 19.65352539 -17.37963867 9.11352539 C-16.71963867 9.11352539 -16.05963867 9.11352539 -15.37963867 9.11352539 C-15.37963867 8.45352539 -15.37963867 7.79352539 -15.37963867 7.11352539 C-12.74071691 5.33047015 -10.40785004 4.12292918 -7.37963867 3.11352539 C-7.37963867 2.45352539 -7.37963867 1.79352539 -7.37963867 1.11352539 C-4.57426564 0.17840105 -2.89798503 -0.00830368 0 0 Z " fill="#D95B5B" transform="translate(77.379638671875,57.886474609375)"/>
<path d="M0 0 C0.80566406 0.00322266 1.61132812 0.00644531 2.44140625 0.00976562 C3.70404297 0.02233398 3.70404297 0.02233398 4.9921875 0.03515625 C6.26642578 0.04192383 6.26642578 0.04192383 7.56640625 0.04882812 C9.66669659 0.06062751 11.7669508 0.07856319 13.8671875 0.09765625 C13.8671875 0.42765625 13.8671875 0.75765625 13.8671875 1.09765625 C7.81889264 1.99369993 1.9777299 2.21035068 -4.1328125 2.09765625 C-4.3596875 2.73703125 -4.5865625 3.37640625 -4.8203125 4.03515625 C-6.30365087 7.49627912 -8.11443723 10.66560126 -10.01171875 13.9140625 C-11.07725426 15.98944351 -11.67317235 17.82011348 -12.1328125 20.09765625 C-12.7928125 20.09765625 -13.4528125 20.09765625 -14.1328125 20.09765625 C-14.2771875 20.88140625 -14.4215625 21.66515625 -14.5703125 22.47265625 C-15.1328125 25.09765625 -15.1328125 25.09765625 -16.1328125 27.09765625 C-16.7928125 27.09765625 -17.4528125 27.09765625 -18.1328125 27.09765625 C-17.63327434 18.6055076 -15.2373031 9.20214685 -9.1328125 3.09765625 C-14.0828125 2.76765625 -19.0328125 2.43765625 -24.1328125 2.09765625 C-24.1328125 1.76765625 -24.1328125 1.43765625 -24.1328125 1.09765625 C-22.21855469 1.11505859 -22.21855469 1.11505859 -20.265625 1.1328125 C-18.59635563 1.14219042 -16.92708467 1.15129062 -15.2578125 1.16015625 C-14.41605469 1.16853516 -13.57429687 1.17691406 -12.70703125 1.18554688 C-11.90136719 1.18876953 -11.09570312 1.19199219 -10.265625 1.1953125 C-9.52199707 1.20054932 -8.77836914 1.20578613 -8.01220703 1.21118164 C-5.14375354 1.03791185 -3.02100594 -0.02127469 0 0 Z " fill="#A73838" transform="translate(203.1328125,24.90234375)"/>
<path d="M0 0 C-1.34517259 3.0746802 -2.72906454 4.87571902 -5.3125 7 C-9.24005703 10.32109602 -13.03876469 13.75667748 -16.8125 17.25 C-17.37557861 17.76949219 -17.93865723 18.28898437 -18.51879883 18.82421875 C-20.01759119 20.21069734 -21.5091399 21.60499548 -23 23 C-23.54497635 23.46167068 -24.0899527 23.92334137 -24.65144348 24.39900208 C-26.38716792 26.45964334 -26.3932004 27.61626713 -26.43237305 30.2878418 C-26.45216721 31.14850754 -26.47196136 32.00917328 -26.49235535 32.8959198 C-26.49874527 33.82100845 -26.50513519 34.74609711 -26.51171875 35.69921875 C-26.52966995 36.64940384 -26.54762115 37.59958893 -26.56611633 38.5785675 C-26.62031893 41.61483313 -26.65414704 44.65094067 -26.6875 47.6875 C-26.72066428 49.74546475 -26.7551531 51.80340862 -26.79101562 53.86132812 C-26.8760512 58.90743819 -26.94281498 63.95350056 -27 69 C-27.33 69 -27.66 69 -28 69 C-28.93201642 53.32215242 -29.12135629 37.70350428 -29 22 C-28.01 22 -27.02 22 -26 22 C-24.34045966 20.66816009 -24.34045966 20.66816009 -22.75 18.875 C-20.30810955 16.32941993 -17.84334209 13.88566876 -15.1875 11.5625 C-14.62417969 11.06878906 -14.06085938 10.57507812 -13.48046875 10.06640625 C-12 9 -12 9 -10 9 C-10 8.34 -10 7.68 -10 7 C-9.34 7 -8.68 7 -8 7 C-8 6.34 -8 5.68 -8 5 C-2.52380952 0 -2.52380952 0 0 0 Z " fill="#B63737" transform="translate(161,28)"/>
<path d="M0 0 C0.66 0 1.32 0 2 0 C0.42105263 16.57894737 0.42105263 16.57894737 -2 19 C-6.09789669 18.62056512 -8.53958935 18.30694043 -12 16 C-10.96905133 13.42262834 -10.4891374 12.23715753 -7.9375 11 C-7.298125 10.67 -6.65875 10.34 -6 10 C-5.855625 9.4225 -5.71125 8.845 -5.5625 8.25 C-4.66863685 4.6745474 -2.4985255 2.68134444 0 0 Z " fill="#391313" transform="translate(200,150)"/>
<path d="M0 0 C0.33 0 0.66 0 1 0 C1.94200718 6.34733408 2.15166043 12.52566742 2.125 18.9375 C2.13080078 20.37319336 2.13080078 20.37319336 2.13671875 21.83789062 C2.13542969 22.74603516 2.13414062 23.65417969 2.1328125 24.58984375 C2.13168457 25.41347412 2.13055664 26.23710449 2.12939453 27.08569336 C2 29 2 29 1 30 C-1.05251939 30.15931415 -3.11029855 30.25152026 -5.16796875 30.31640625 C-6.45509766 30.35830078 -7.74222656 30.40019531 -9.06835938 30.44335938 C-9.74664795 30.46293701 -10.42493652 30.48251465 -11.1237793 30.50268555 C-13.13411214 30.56095262 -15.14421325 30.62704938 -17.15429688 30.69335938 C-25.77408309 30.96179562 -34.37659162 31.05291465 -43 31 C-39.98999148 28.99332766 -39.36507544 28.74508029 -35.98754883 28.68115234 C-34.7866436 28.65134781 -34.7866436 28.65134781 -33.56147766 28.62094116 C-32.27227669 28.60361435 -32.27227669 28.60361435 -30.95703125 28.5859375 C-29.63163582 28.55688828 -29.63163582 28.55688828 -28.27946472 28.5272522 C-25.45724134 28.46747195 -22.63497714 28.42107734 -19.8125 28.375 C-17.89907075 28.33681878 -15.98565867 28.29776696 -14.07226562 28.2578125 C-9.3815997 28.16013269 -4.6911166 28.08055239 0 28 C0 18.76 0 9.52 0 0 Z " fill="#C82D2D" transform="translate(217,26)"/>
<path d="M0 0 C-0.99 1.485 -0.99 1.485 -2 3 C-2.99 3 -3.98 3 -5 3 C-5 3.66 -5 4.32 -5 5 C-5.66 5 -6.32 5 -7 5 C-7 5.66 -7 6.32 -7 7 C-8.65 7.66 -10.3 8.32 -12 9 C-11.67 11.64 -11.34 14.28 -11 17 C-7.31085253 16.55282671 -7.31085253 16.55282671 -4.4375 14.375 C-3.963125 13.92125 -3.48875 13.4675 -3 13 C-0.91015625 13.4140625 -0.91015625 13.4140625 1 14 C0.44570313 14.38671875 -0.10859375 14.7734375 -0.6796875 15.171875 C-1.40414062 15.69265625 -2.12859375 16.2134375 -2.875 16.75 C-3.59429687 17.26046875 -4.31359375 17.7709375 -5.0546875 18.296875 C-7.11313994 19.86988368 -7.11313994 19.86988368 -8.0078125 22.140625 C-8.33523437 22.75421875 -8.66265625 23.3678125 -9 24 C-10.32 24.33 -11.64 24.66 -13 25 C-13 18.4 -13 11.8 -13 5 C-12.01 4.67 -11.02 4.34 -10 4 C-9.67 3.34 -9.34 2.68 -9 2 C-3.56692913 -1.18897638 -3.56692913 -1.18897638 0 0 Z " fill="#F17B7D" transform="translate(46,105)"/>
<path d="M0 0 C0.33 0.66 0.66 1.32 1 2 C0.07421875 4.71484375 0.07421875 4.71484375 -1.3125 7.9375 C-1.98732422 9.52884766 -1.98732422 9.52884766 -2.67578125 11.15234375 C-4 14 -4 14 -6 17 C-4.36804688 16.89171875 -4.36804688 16.89171875 -2.703125 16.78125 C5.88248655 16.23198234 14.39144398 15.89103094 23 16 C23 10.72 23 5.44 23 0 C23.33 0 23.66 0 24 0 C24 5.94 24 11.88 24 18 C13.77 18 3.54 18 -7 18 C-7 16.35 -7 14.7 -7 13 C-6.34 13 -5.68 13 -5 13 C-4.9175 12.34 -4.835 11.68 -4.75 11 C-3.75240209 7.00960837 -1.92833317 3.61450357 0 0 Z " fill="#8A4A4B" transform="translate(93,39)"/>
<path d="M0 0 C0.886875 0.103125 1.77375 0.20625 2.6875 0.3125 C2.39998893 3.52672633 1.58832842 4.40594717 -0.81640625 6.671875 C-1.82574219 7.46078125 -2.83507812 8.2496875 -3.875 9.0625 C-5.39287109 10.26132813 -5.39287109 10.26132813 -6.94140625 11.484375 C-7.72386719 12.08765625 -8.50632813 12.6909375 -9.3125 13.3125 C-8.6525 13.9725 -7.9925 14.6325 -7.3125 15.3125 C-8.6325 15.6425 -9.9525 15.9725 -11.3125 16.3125 C-10.4375 11.5625 -10.4375 11.5625 -9.3125 9.3125 C-8.6525 9.3125 -7.9925 9.3125 -7.3125 9.3125 C-7.3125 8.6525 -7.3125 7.9925 -7.3125 7.3125 C-8.9625 7.3125 -10.6125 7.3125 -12.3125 7.3125 C-12.3125 5.3325 -12.3125 3.3525 -12.3125 1.3125 C-11.9825 1.3125 -11.6525 1.3125 -11.3125 1.3125 C-11.3125 2.9625 -11.3125 4.6125 -11.3125 6.3125 C-8.11984452 5.52185627 -8.11984452 5.52185627 -6 2.75 C-3.3125 0.3125 -3.3125 0.3125 0 0 Z " fill="#BD6466" transform="translate(44.3125,92.6875)"/>
<path d="M0 0 C4.88170709 1.36233686 6.80111818 2.64089455 11 6 C7.37 8.31 3.74 10.62 0 13 C-1.20535714 3.89285714 -1.20535714 3.89285714 0 0 Z " fill="#6F1E1E" transform="translate(233,25)"/>
<path d="M0 0 C0.33 0 0.66 0 1 0 C1.144375 1.051875 1.28875 2.10375 1.4375 3.1875 C1.74145007 5.24760602 2.06957281 7.30753943 2.52905273 9.33862305 C3.07176456 12.40554976 3.11241658 15.28010261 3.09765625 18.39453125 C3.09443359 19.59658203 3.09121094 20.79863281 3.08789062 22.03710938 C3.07951172 23.28298828 3.07113281 24.52886719 3.0625 25.8125 C3.05798828 27.07771484 3.05347656 28.34292969 3.04882812 29.64648438 C3.03706251 32.7643711 3.02062272 35.88216133 3 39 C3.99 39.33 4.98 39.66 6 40 C4.02 40.495 4.02 40.495 2 41 C-0.91562135 27.64694424 -0.11993138 13.58361269 0 0 Z " fill="#C64647" transform="translate(31,58)"/>
<path d="M0 0 C0.66 0.33 1.32 0.66 2 1 C-1.33333333 7.66666667 -4.66666667 14.33333333 -8 21 C-8.66 21 -9.32 21 -10 21 C-9.61427584 14.5091934 -8.93061988 8.86123976 -6 3 C-3.375 1.5625 -3.375 1.5625 -1 1 C-0.67 0.67 -0.34 0.34 0 0 Z " fill="#D1595A" transform="translate(96,30)"/>
<path d="M0 0 C0.99 0.33 1.98 0.66 3 1 C-4.05024311 9.36628849 -4.05024311 9.36628849 -7 12 C-7.66 12 -8.32 12 -9 12 C-9 20.91 -9 29.82 -9 39 C-9.33 39 -9.66 39 -10 39 C-10 28.77 -10 18.54 -10 8 C-9.34 8 -8.68 8 -8 8 C-8 7.34 -8 6.68 -8 6 C-5.36107824 4.21694476 -3.02821137 3.00940379 0 2 C0 1.34 0 0.68 0 0 Z " fill="#BE5958" transform="translate(70,59)"/>
<path d="M0 0 C1.7074998 1.28062485 3.37373596 2.61767557 5 4 C5 4.66 5 5.32 5 6 C5.66 6 6.32 6 7 6 C7 6.66 7 7.32 7 8 C7.66 8 8.32 8 9 8 C9 8.66 9 9.32 9 10 C9.99 10.33 10.98 10.66 12 11 C12 12.32 12 13.64 12 15 C10.35 15 8.7 15 7 15 C7 13.68 7 12.36 7 11 C5.68 10.34 4.36 9.68 3 9 C3 8.34 3 7.68 3 7 C2.34 7 1.68 7 1 7 C-0.0625 4.625 -0.0625 4.625 -1 2 C-0.67 1.34 -0.34 0.68 0 0 Z " fill="#FBC8CA" transform="translate(87,168)"/>
<path d="M0 0 C2.5625 2.0625 2.5625 2.0625 5 5 C4.92692067 9.16552191 4.14492003 12.42513328 2 16 C1.34 15.67 0.68 15.34 0 15 C-1.19156496 9.69211971 -0.83536335 5.29063457 0 0 Z " fill="#983132" transform="translate(241,169)"/>
<path d="M0 0 C0.33 0 0.66 0 1 0 C1.02916504 0.85231201 1.05833008 1.70462402 1.08837891 2.58276367 C1.21090912 5.76183808 1.35925914 8.93838127 1.52490234 12.11547852 C1.59117952 13.48741601 1.64731382 14.85988428 1.69287109 16.23266602 C1.66148502 24.02638062 1.66148502 24.02638062 4.42480469 31.04150391 C6.19293056 32.60788318 6.19293056 32.60788318 9 34 C8.34 34.66 7.68 35.32 7 36 C3.97173976 34.45782592 1.93999847 32.80718673 0 30 C-0.89730429 24.8619279 -0.66053879 19.80839736 -0.4375 14.625 C-0.40235235 13.20710801 -0.37041934 11.78913247 -0.34179688 10.37109375 C-0.26501255 6.91231461 -0.14442559 3.45669155 0 0 Z " fill="#B13635" transform="translate(164,110)"/>
<path d="M0 0 C0.33 0 0.66 0 1 0 C1.36294314 2.1026706 1.71506972 4.20721057 2.0625 6.3125 C2.25972656 7.48425781 2.45695313 8.65601562 2.66015625 9.86328125 C3 13 3 13 2 16 C2.99 16 3.98 16 5 16 C5 15.34 5 14.68 5 14 C7.64 13.67 10.28 13.34 13 13 C12.67 14.32 12.34 15.64 12 17 C11.34 17 10.68 17 10 17 C10 16.34 10 15.68 10 15 C9.01 15 8.02 15 7 15 C7 15.66 7 16.32 7 17 C6.01 17 5.02 17 4 17 C4 17.66 4 18.32 4 19 C2.68 19 1.36 19 0 19 C0 12.73 0 6.46 0 0 Z " fill="#5B2222" transform="translate(134,77)"/>
<path d="M0 0 C-1.04874998 2.62187494 -1.64931313 3.79371361 -4.125 5.25 C-4.74375 5.4975 -5.3625 5.745 -6 6 C-6 6.66 -6 7.32 -6 8 C-7.609375 9.5859375 -7.609375 9.5859375 -9.75 11.375 C-12.06903702 13.33757727 -14.25219284 15.2588295 -16.375 17.4375 C-18 19 -18 19 -20 19 C-17.6035874 13.23529636 -6.77551384 0 0 0 Z " fill="#CB5556" transform="translate(51,39)"/>
<path d="M0 0 C3 0 3 0 5 1 C4.01 3.64 3.02 6.28 2 9 C1.34 9 0.68 9 0 9 C-0.144375 9.78375 -0.28875 10.5675 -0.4375 11.375 C-1 14 -1 14 -2 16 C-2.66 16 -3.32 16 -4 16 C-3.47606294 10.13190493 -2.23891142 5.45126259 0 0 Z " fill="#B22B2B" transform="translate(189,36)"/>
<path d="M0 0 C2.08203125 0.41796875 2.08203125 0.41796875 4 1 C3.44570313 1.38671875 2.89140625 1.7734375 2.3203125 2.171875 C1.23363281 2.95304687 1.23363281 2.95304687 0.125 3.75 C-0.59429687 4.26046875 -1.31359375 4.7709375 -2.0546875 5.296875 C-4.09919381 7.08684438 -4.85198169 8.58096141 -6 11 C-8.125 11.75 -8.125 11.75 -10 12 C-10 9.69 -10 7.38 -10 5 C-8.906875 4.731875 -7.81375 4.46375 -6.6875 4.1875 C-3.07795409 3.33463221 -3.07795409 3.33463221 -1.3125 1.3125 C-0.879375 0.879375 -0.44625 0.44625 0 0 Z " fill="#EF8C8E" transform="translate(43,118)"/>
<path d="M0 0 C0.99 0 1.98 0 3 0 C3 0.66 3 1.32 3 2 C2.34 2 1.68 2 1 2 C1 2.66 1 3.32 1 4 C-0.98260426 5.68732277 -2.9832342 7.35366057 -5 9 C-5.33 9.66 -5.66 10.32 -6 11 C-4.35 11 -2.7 11 -1 11 C-1 11.33 -1 11.66 -1 12 C-4.63 12 -8.26 12 -12 12 C-10.68 11.67 -9.36 11.34 -8 11 C-7.67 8.69 -7.34 6.38 -7 4 C-5.68 4 -4.36 4 -3 4 C-3 3.34 -3 2.68 -3 2 C-2.01 2 -1.02 2 0 2 C0 1.34 0 0.68 0 0 Z " fill="#DA3838" transform="translate(141,92)"/>
<path d="M0 0 C2.45566409 3.68349613 2.44699722 6.72096186 2.625 11 C2.66294678 11.75659912 2.70089355 12.51319824 2.73999023 13.29272461 C3.01666132 19.19566841 3.11486119 25.09102989 3 31 C1.39893973 28.15099551 0.72732288 25.99276425 0.5859375 22.734375 C0.54726562 21.92613281 0.50859375 21.11789063 0.46875 20.28515625 C0.4378125 19.44855469 0.406875 18.61195312 0.375 17.75 C0.33632812 16.92886719 0.29765625 16.10773438 0.2578125 15.26171875 C0.0318961 10.17053121 -0.03522435 5.09578899 0 0 Z " fill="#692222" transform="translate(177,83)"/>
<path d="M0 0 C0 0.33 0 0.66 0 1 C-5.61 1 -11.22 1 -17 1 C-17.66 2.32 -18.32 3.64 -19 5 C-20.7265625 6.484375 -20.7265625 6.484375 -22.625 7.75 C-23.57246094 8.39195313 -23.57246094 8.39195313 -24.5390625 9.046875 C-25.02117188 9.36140625 -25.50328125 9.6759375 -26 10 C-26.33 9.01 -26.66 8.02 -27 7 C-19.31940946 -1.80348389 -10.7466662 -0.73035596 0 0 Z " fill="#BD5A5A" transform="translate(77,30)"/>
<path d="M0 0 C0 0.99 0 1.98 0 3 C-4.34285714 7 -4.34285714 7 -7 7 C-6.67 6.01 -6.34 5.02 -6 4 C-8.31 4.66 -10.62 5.32 -13 6 C-5.46629213 -1.95224719 -5.46629213 -1.95224719 0 0 Z " fill="#BB696B" transform="translate(51,101)"/>
<path d="M0 0 C0.66 0.66 1.32 1.32 2 2 C1.50628906 2.3196875 1.01257813 2.639375 0.50390625 2.96875 C-3.200323 5.8903956 -5.11556586 8.31213671 -5.6875 13.02734375 C-5.98374167 17.01881043 -6.03362323 20.99883512 -6 25 C-6.33 25 -6.66 25 -7 25 C-7.33 18.4 -7.66 11.8 -8 5 C-7.01 5 -6.02 5 -5 5 C-2.31232422 2.56249975 -2.31232422 2.56249975 0 0 Z " fill="#A62E2E" transform="translate(140,45)"/>
<path d="M0 0 C0.66 0 1.32 0 2 0 C3.12880057 3.31114834 4.21302675 6.58978257 5 10 C3.02 10.33 1.04 10.66 -1 11 C-1.14285714 3.57142857 -1.14285714 3.57142857 0 0 Z " fill="#831A1A" transform="translate(224,154)"/>
<path d="M0 0 C1.24546405 2.49092811 0.7767578 3.41080733 0 6 C0.66 6.33 1.32 6.66 2 7 C1.34 7 0.68 7 0 7 C0 8.65 0 10.3 0 12 C5.28 12 10.56 12 16 12 C16 12.33 16 12.66 16 13 C9.73 13 3.46 13 -3 13 C-1.125 1.125 -1.125 1.125 0 0 Z " fill="#9C595A" transform="translate(86,45)"/>
<path d="M0 0 C0.33 0 0.66 0 1 0 C1.94870788 6.85988773 1.94870788 13.14011227 1 20 C-1 18 -1 18 -1.23046875 15.13671875 C-1.21628906 13.99847656 -1.20210937 12.86023438 -1.1875 11.6875 C-1.18105469 10.55699219 -1.17460938 9.42648438 -1.16796875 8.26171875 C-1.02015783 5.39143692 -0.65474022 2.79181228 0 0 Z " fill="#EEA5A7" transform="translate(63,124)"/>
<path d="M0 0 C3.96 0.33 7.92 0.66 12 1 C11.67 1.99 11.34 2.98 11 4 C7.37 4 3.74 4 0 4 C0 2.68 0 1.36 0 0 Z " fill="#DF9A9C" transform="translate(99,179)"/>
<path d="M0 0 C0.66 0.33 1.32 0.66 2 1 C0.68 3.64 -0.64 6.28 -2 9 C-3.65 9 -5.3 9 -7 9 C-6.8125 6.125 -6.8125 6.125 -6 3 C-3.5 1.6875 -3.5 1.6875 -1 1 C-0.67 0.67 -0.34 0.34 0 0 Z " fill="#C95354" transform="translate(96,30)"/>
<path d="M0 0 C0.66 1.32 1.32 2.64 2 4 C3.48852516 5.47240395 5.03532616 6.88742243 6.625 8.25 C7.44226563 8.95640625 8.25953125 9.6628125 9.1015625 10.390625 C9.72804687 10.92171875 10.35453125 11.4528125 11 12 C10.67 12.66 10.34 13.32 10 14 C7.03 11.69 4.06 9.38 1 7 C0.34 7.99 -0.32 8.98 -1 10 C-0.67 6.7 -0.34 3.4 0 0 Z " fill="#BE3B2D" transform="translate(141,153)"/>
<path d="M0 0 C0.33 1.32 0.66 2.64 1 4 C6.94 3.67 12.88 3.34 19 3 C19 3.99 19 4.98 19 6 C12.73 6 6.46 6 0 6 C0 4.02 0 2.04 0 0 Z " fill="#270C02" transform="translate(145,136)"/>
<path d="M0 0 C0.99 0 1.98 0 3 0 C2.03644647 10.55808656 2.03644647 10.55808656 1 15 C0.67 15 0.34 15 0 15 C0 10.05 0 5.1 0 0 Z " fill="#5F2323" transform="translate(118,130)"/>
<path d="M0 0 C0.33 0 0.66 0 1 0 C1 1.65 1 3.3 1 5 C1.55429687 4.7834375 2.10859375 4.566875 2.6796875 4.34375 C3.40414062 4.0653125 4.12859375 3.786875 4.875 3.5 C5.95394531 3.08234375 5.95394531 3.08234375 7.0546875 2.65625 C9 2 9 2 11 2 C11 2.66 11 3.32 11 4 C10.01 4 9.02 4 8 4 C7.34 5.32 6.68 6.64 6 8 C5.67 7.34 5.34 6.68 5 6 C3.35 6 1.7 6 0 6 C0 4.02 0 2.04 0 0 Z " fill="#E56365" transform="translate(32,94)"/>
<path d="M0 0 C1 2 1 2 0.109375 4.78515625 C-0.33921875 5.86667969 -0.7878125 6.94820312 -1.25 8.0625 C-1.68828125 9.14660156 -2.1265625 10.23070312 -2.578125 11.34765625 C-4 14 -4 14 -7 15 C-7 14.34 -7 13.68 -7 13 C-6.34 13 -5.68 13 -5 13 C-4.9175 12.34 -4.835 11.68 -4.75 11 C-3.75240209 7.00960837 -1.92833317 3.61450357 0 0 Z " fill="#8E4C4D" transform="translate(93,39)"/>
<path d="M0 0 C0.928125 0.0825 1.85625 0.165 2.8125 0.25 C2.4825 1.9 2.1525 3.55 1.8125 5.25 C1.1525 5.25 0.4925 5.25 -0.1875 5.25 C0.1425 4.26 0.4725 3.27 0.8125 2.25 C-1.4975 2.91 -3.8075 3.57 -6.1875 4.25 C-4.36434338 1.00883268 -3.82500054 0.30000004 0 0 Z " fill="#CD6E71" transform="translate(44.1875,102.75)"/>
<path d="M0 0 C0.33 0 0.66 0 1 0 C1.1953125 6.0546875 1.1953125 6.0546875 1 8 C0.34 8.66 -0.32 9.32 -1 10 C-2.15837626 5.94568308 -1.83691257 3.78187881 0 0 Z " fill="#6F2525" transform="translate(130,49)"/>
<path d="M0 0 C0.66 0 1.32 0 2 0 C2 0.66 2 1.32 2 2 C1.34 2 0.68 2 0 2 C-0.2475 2.78375 -0.495 3.5675 -0.75 4.375 C-2.15389099 7.32317108 -3.00675737 7.9024777 -6 9 C-4.4722133 5.56247993 -2.49818944 2.81046312 0 0 Z " fill="#D64039" transform="translate(190,127)"/>
<path d="M0 0 C0.66 0.99 1.32 1.98 2 3 C1.67 3.66 1.34 4.32 1 5 C2.65 5 4.3 5 6 5 C6 5.33 6 5.66 6 6 C2.37 6 -1.26 6 -5 6 C-3.68 5.67 -2.36 5.34 -1 5 C-0.67 3.35 -0.34 1.7 0 0 Z " fill="#C53632" transform="translate(134,98)"/>
<path d="M0 0 C0.99 0.99 1.98 1.98 3 3 C2.75 5 2.75 5 2 7 C1.67 7.99 1.34 8.98 1 10 C0.34 10 -0.32 10 -1 10 C-0.67 6.7 -0.34 3.4 0 0 Z " fill="#E15455" transform="translate(87,41)"/>
<path d="M0 0 C4.62 0 9.24 0 14 0 C12.68 1.32 11.36 2.64 10 4 C10 3.01 10 2.02 10 1 C6.7 1 3.4 1 0 1 C0 0.67 0 0.34 0 0 Z " fill="#501E1E" transform="translate(181,27)"/>
<path d="M0 0 C0.66 0 1.32 0 2 0 C1.67 3.3 1.34 6.6 1 10 C0.34 9.34 -0.32 8.68 -1 8 C-0.96712417 5.27130593 -0.43602229 2.7033382 0 0 Z " fill="#F4B8BA" transform="translate(63,134)"/>
<path d="M0 0 C1.65 1.32 3.3 2.64 5 4 C4.67 4.66 4.34 5.32 4 6 C3.01 6.33 2.02 6.66 1 7 C-0.0625 4.625 -0.0625 4.625 -1 2 C-0.67 1.34 -0.34 0.68 0 0 Z " fill="#F9C1C3" transform="translate(87,168)"/>
<path d="M0 0 C0.66 0 1.32 0 2 0 C1.67 2.97 1.34 5.94 1 9 C0.34 7.68 -0.32 6.36 -1 5 C-1.66 4.67 -2.32 4.34 -3 4 C-1.625 2 -1.625 2 0 0 Z " fill="#701B17" transform="translate(200,150)"/>
<path d="M0 0 C2.1875 0.3125 2.1875 0.3125 4 1 C2.02 2.32 0.04 3.64 -2 5 C-2.33 4.34 -2.66 3.68 -3 3 C-1.75 1.4375 -1.75 1.4375 0 0 Z " fill="#F98486" transform="translate(43,118)"/>
<path d="M0 0 C1.24546405 2.49092811 0.7767578 3.41080733 0 6 C0.66 6.33 1.32 6.66 2 7 C1.34 7 0.68 7 0 7 C0 7.99 0 8.98 0 10 C-0.66 10 -1.32 10 -2 10 C-1.85950482 8.52031676 -1.71245174 7.04125484 -1.5625 5.5625 C-1.48128906 4.73878906 -1.40007812 3.91507813 -1.31640625 3.06640625 C-1 1 -1 1 0 0 Z " fill="#B25455" transform="translate(86,45)"/>
</svg>
